HIERARCHY
ROOT pelvis
{
	OFFSET 0.003123 -0.351407 0.012037
	CHANNELS 6 Xposition Yposition Zposition Zrotation Yrotation Xrotation 
	JOINT left_hip
	{
		OFFSET 0.058189 -0.092763 -0.026001
		CHANNELS 3 Zrotation Yrotation Xrotation
		JOINT left_knee
		{
			OFFSET 0.054695 -0.378753 -0.009396
			CHANNELS 3 Zrotation Yrotation Xrotation
			JOINT left_ankle
			{
				OFFSET -0.043453 -0.403059 -0.031876
				CHANNELS 3 Zrotation Yrotation Xrotation
				JOINT left_foot
				{
					OFFSET 0.047257 -0.057997 0.118216
					CHANNELS 3 Zrotation Yrotation Xrotation
					End Site
					{
						OFFSET 0.000000 0.000000 0.000000
					}
				}
			}
		}
	}
	JOINT right_hip
	{
		OFFSET -0.063267 -0.103908 -0.021250
		CHANNELS 3 Zrotation Yrotation Xrotation
		JOINT right_knee
		{
			OFFSET -0.044210 -0.362380 -0.016824
			CHANNELS 3 Zrotation Yrotation Xrotation
			JOINT right_ankle
			{
				OFFSET 0.015417 -0.410728 -0.020192
				CHANNELS 3 Zrotation Yrotation Xrotation
				JOINT right_foot
				{
					OFFSET -0.038812 -0.058328 0.119049
					CHANNELS 3 Zrotation Yrotation Xrotation
					End Site
					{
						OFFSET 0.000000 0.000000 0.000000
					}
				}
			}
		}
	}
	JOINT spine_1
	{
		OFFSET -0.002763 0.109891 -0.027618
		CHANNELS 3 Zrotation Yrotation Xrotation
		JOINT spine_2
		{
			OFFSET 0.009448 0.131853 -0.005940
			CHANNELS 3 Zrotation Yrotation Xrotation
			JOINT spine_3
			{
				OFFSET -0.011330 0.052235 0.028447
				CHANNELS 3 Zrotation Yrotation Xrotation
				JOINT neck
				{
					OFFSET -0.012164 0.165167 -0.031615
					CHANNELS 3 Zrotation Yrotation Xrotation
					JOINT head
					{
						OFFSET 0.024783 0.160452 0.020737
						CHANNELS 3 Zrotation Yrotation Xrotation
						End Site
						{
							OFFSET 0.000000 0.000000 0.000000
						}
					}
				}
				JOINT left_collar
				{
					OFFSET 0.046364 0.084944 -0.007220
					CHANNELS 3 Zrotation Yrotation Xrotation
					JOINT left_shoulder
					{
						OFFSET 0.119239 0.057728 -0.015461
						CHANNELS 3 Zrotation Yrotation Xrotation
						JOINT left_elbow
						{
							OFFSET 0.254123 -0.072151 -0.042459
							CHANNELS 3 Zrotation Yrotation Xrotation
							JOINT left_wrist
							{
								OFFSET 0.251987 0.023221 -0.002472
								CHANNELS 3 Zrotation Yrotation Xrotation
								JOINT left_index_1
								{
									OFFSET 0.101902 -0.008688 0.019351
									CHANNELS 3 Zrotation Yrotation Xrotation
									JOINT left_index_2
									{
										OFFSET 0.030149 -0.011154 0.001151
										CHANNELS 3 Zrotation Yrotation Xrotation
										JOINT left_index_3
										{
											OFFSET 0.006504 -0.021577 -0.002433
											CHANNELS 3 Zrotation Yrotation Xrotation
											End Site
											{
												OFFSET 0.000000 0.000000 0.000000
											}
										}
									}
								}
								JOINT left_middle_1
								{
									OFFSET 0.109398 -0.006328 -0.003981
									CHANNELS 3 Zrotation Yrotation Xrotation
									JOINT left_middle_2
									{
										OFFSET 0.026472 -0.015218 -0.004641
										CHANNELS 3 Zrotation Yrotation Xrotation
										JOINT left_middle_3
										{
											OFFSET 0.005022 -0.023347 -0.001911
											CHANNELS 3 Zrotation Yrotation Xrotation
											End Site
											{
												OFFSET 0.000000 0.000000 0.000000
											}
										}
									}
								}
								JOINT left_pinky_1
								{
									OFFSET 0.084047 -0.014539 -0.043750
									CHANNELS 3 Zrotation Yrotation Xrotation
									JOINT left_pinky_2
									{
										OFFSET 0.012124 -0.014448 -0.005375
										CHANNELS 3 Zrotation Yrotation Xrotation
										JOINT left_pinky_3
										{
											OFFSET 0.003798 -0.018853 0.000167
											CHANNELS 3 Zrotation Yrotation Xrotation
											End Site
											{
												OFFSET 0.000000 0.000000 0.000000
											}
										}
									}
								}
								JOINT left_ring_1
								{
									OFFSET 0.097444 -0.009268 -0.027345
									CHANNELS 3 Zrotation Yrotation Xrotation
									JOINT left_ring_2
									{
										OFFSET 0.023561 -0.016057 -0.001895
										CHANNELS 3 Zrotation Yrotation Xrotation
										JOINT left_ring_3
										{
											OFFSET 0.004257 -0.023548 0.000814
											CHANNELS 3 Zrotation Yrotation Xrotation
											End Site
											{
												OFFSET 0.000000 0.000000 0.000000
											}
										}
									}
								}
								JOINT left_thumb_1
								{
									OFFSET 0.040636 -0.017977 0.025611
									CHANNELS 3 Zrotation Yrotation Xrotation
									JOINT left_thumb_2
									{
										OFFSET 0.021637 -0.017639 0.011623
										CHANNELS 3 Zrotation Yrotation Xrotation
										JOINT left_thumb_3
										{
											OFFSET 0.024002 -0.008356 0.006548
											CHANNELS 3 Zrotation Yrotation Xrotation
											End Site
											{
												OFFSET 0.000000 0.000000 0.000000
											}
										}
									}
								}
							}
						}
					}
				}
				JOINT right_collar
				{
					OFFSET -0.047695 0.084339 -0.013400
					CHANNELS 3 Zrotation Yrotation Xrotation
					JOINT right_shoulder
					{
						OFFSET -0.102578 0.053524 -0.012669
						CHANNELS 3 Zrotation Yrotation Xrotation
						JOINT right_elbow
						{
							OFFSET -0.271150 -0.036492 -0.026467
							CHANNELS 3 Zrotation Yrotation Xrotation
							JOINT right_wrist
							{
								OFFSET -0.249267 -0.004533 -0.015325
								CHANNELS 3 Zrotation Yrotation Xrotation
								JOINT right_index_1
								{
									OFFSET -0.099881 -0.011783 0.019600
									CHANNELS 3 Zrotation Yrotation Xrotation
									JOINT right_index_2
									{
										OFFSET -0.030148 -0.011154 0.001151
										CHANNELS 3 Zrotation Yrotation Xrotation
										JOINT right_index_3
										{
											OFFSET -0.006505 -0.021577 -0.002432
											CHANNELS 3 Zrotation Yrotation Xrotation
											End Site
											{
												OFFSET 0.000000 0.000000 0.000000
											}
										}
									}
								}
								JOINT right_middle_1
								{
									OFFSET -0.107376 -0.009422 -0.003734
									CHANNELS 3 Zrotation Yrotation Xrotation
									JOINT right_middle_2
									{
										OFFSET -0.026472 -0.015218 -0.004641
										CHANNELS 3 Zrotation Yrotation Xrotation
										JOINT right_middle_3
										{
											OFFSET -0.005022 -0.023347 -0.001911
											CHANNELS 3 Zrotation Yrotation Xrotation
											End Site
											{
												OFFSET 0.000000 0.000000 0.000000
											}
										}
									}
								}
								JOINT right_pinky_1
								{
									OFFSET -0.082027 -0.017634 -0.043503
									CHANNELS 3 Zrotation Yrotation Xrotation
									JOINT right_pinky_2
									{
										OFFSET -0.012123 -0.014448 -0.005374
										CHANNELS 3 Zrotation Yrotation Xrotation
										JOINT right_pinky_3
										{
											OFFSET -0.003798 -0.018852 0.000167
											CHANNELS 3 Zrotation Yrotation Xrotation
											End Site
											{
												OFFSET 0.000000 0.000000 0.000000
											}
										}
									}
								}
								JOINT right_ring_1
								{
									OFFSET -0.095423 -0.012362 -0.027099
									CHANNELS 3 Zrotation Yrotation Xrotation
									JOINT right_ring_2
									{
										OFFSET -0.023561 -0.016057 -0.001895
										CHANNELS 3 Zrotation Yrotation Xrotation
										JOINT right_ring_3
										{
											OFFSET -0.004257 -0.023548 0.000816
											CHANNELS 3 Zrotation Yrotation Xrotation
											End Site
											{
												OFFSET 0.000000 0.000000 0.000000
											}
										}
									}
								}
								JOINT right_thumb_1
								{
									OFFSET -0.038613 -0.021074 0.025861
									CHANNELS 3 Zrotation Yrotation Xrotation
									JOINT right_thumb_2
									{
										OFFSET -0.021636 -0.017639 0.011623
										CHANNELS 3 Zrotation Yrotation Xrotation
										JOINT right_thumb_3
										{
											OFFSET -0.024004 -0.008353 0.006547
											CHANNELS 3 Zrotation Yrotation Xrotation
											End Site
											{
												OFFSET 0.000000 0.000000 0.000000
											}
										}
									}
								}
							}
						}
					}
				}
			}
		}
	}
}
MOTION
Frames: 4
Frame Time: 0.050000
0.003207 0.724487 0.004547 -1.124188 0.831736 -25.509641 14.846054 -0.706753 -35.337851 -21.178802 5.936817 59.705650 5.732630 9.532031 -2.381623 0.000000 0.000000 0.000000 -13.965905 -0.086913 -37.926291 17.056102 -9.506667 68.904355 -4.414640 -5.003664 -6.780351 0.000000 0.000000 0.000000 -0.780393 -2.123336 32.116116 -8.136798 0.732042 -13.348834 9.497203 -0.660338 27.686144 3.292485 0.582331 -6.754926 0.000000 0.000000 0.000000 -4.564640 -13.427096 6.533253 -46.675271 -37.704983 -3.534098 -18.737270 -44.219469 12.388584 15.295322 0.359951 23.219614 -27.439328 2.896354 -0.327914 -16.175444 12.958340 15.601804 0.000000 0.000000 0.000000 -27.368382 4.560454 -4.757443 -35.549502 6.722318 1.956367 0.000000 0.000000 0.000000 -14.544815 2.439054 -13.138139 -79.387426 -22.760547 -6.164218 0.000000 0.000000 0.000000 -27.211666 -1.504146 -4.071019 -54.105930 2.390633 1.377644 0.000000 0.000000 0.000000 -10.895082 18.590921 17.156050 17.443503 -2.545353 -8.091898 0.000000 0.000000 0.000000 0.402708 10.120496 5.077060 53.253381 29.988780 4.060579 0.673553 55.201214 -0.180127 -15.177827 -4.227271 19.005545 18.357416 -2.161186 0.484755 0.919135 -5.627822 14.365634 0.000000 0.000000 0.000000 18.399849 2.395834 -4.318435 14.667606 -4.605349 8.047187 0.000000 0.000000 0.000000 1.706975 16.003513 -12.022143 59.838113 8.449259 -7.807177 0.000000 0.000000 0.000000 18.027060 4.194292 -3.624606 34.701050 -2.384927 3.688069 0.000000 0.000000 0.000000 -6.820524 -24.946838 22.534485 2.622818 13.406165 -3.300939 0.000000 0.000000 0.000000 
0.002971 0.723198 0.003227 -1.158748 0.891115 -25.818753 14.800434 -0.721215 -35.156476 -21.123528 5.870981 59.796390 5.792320 9.501588 -2.615202 0.000000 0.000000 0.000000 -14.232020 -0.199140 -37.712059 17.449893 -9.794900 68.850917 -4.414056 -5.008632 -6.761764 0.000000 0.000000 0.000000 -0.424978 -2.315216 33.839296 -8.596395 0.204549 -15.858417 9.398162 -0.610640 29.078776 3.173376 0.657367 -7.120749 0.000000 0.000000 0.000000 -4.009692 -12.995221 6.266571 -46.970654 -37.507610 -3.600890 -19.590447 -44.991532 13.024987 16.121997 0.695683 23.168979 -29.183869 5.024229 -0.228680 -12.713890 10.053055 13.674623 0.000000 0.000000 0.000000 -28.543841 3.553023 -5.131075 -30.681651 6.310982 3.692616 0.000000 0.000000 0.000000 -13.760809 -11.184139 -11.161097 -76.515728 -31.372033 -15.299844 0.000000 0.000000 0.000000 -27.871951 -1.158577 -4.221496 -59.438520 -0.088718 -4.504637 0.000000 0.000000 0.000000 -9.887880 20.313680 18.477516 16.806482 -4.025067 -8.435938 0.000000 0.000000 0.000000 0.406798 9.988103 4.992897 53.663739 29.925203 4.113961 0.603003 56.526812 -0.133026 -15.382662 -6.652295 20.007956 15.574065 -1.394229 0.391220 2.947448 -5.646803 12.561486 0.000000 0.000000 0.000000 15.556004 3.901889 -4.398217 16.889620 -5.421843 8.178959 0.000000 0.000000 0.000000 -2.228579 17.226949 -12.535069 48.396785 1.519963 0.118578 0.000000 0.000000 0.000000 14.523063 5.719920 -3.931680 33.576904 -2.216008 2.409303 0.000000 0.000000 0.000000 -7.283477 -24.763876 22.428445 1.598957 13.132820 -3.640242 0.000000 0.000000 0.000000 
0.002264 0.724487 0.003227 -1.233237 1.110488 -25.297805 14.677513 -0.833137 -35.799933 -20.888573 5.685102 59.835640 5.599880 9.412174 -2.157256 0.000000 0.000000 0.000000 -14.556510 -0.340934 -37.825369 17.953406 -10.128931 68.126236 -4.498494 -5.210829 -6.738021 0.000000 0.000000 0.000000 -0.887688 -2.119856 32.248067 -7.972111 0.621923 -13.525908 9.484476 -0.631555 28.046113 3.787869 0.639369 -7.420625 0.000000 0.000000 0.000000 -4.758537 -13.268818 6.449783 -46.879536 -37.318227 -3.612826 -18.899854 -45.615623 12.908482 15.721442 -0.013658 23.766696 -26.206878 4.866882 -0.042123 -15.423141 10.270664 11.973290 0.000000 0.000000 0.000000 -24.408076 3.181501 -4.302392 -38.071878 7.382748 1.388297 0.000000 0.000000 0.000000 -4.482856 -11.145951 -8.435063 -80.356713 -27.387440 -17.202503 0.000000 0.000000 0.000000 -21.180712 -0.697299 -3.349670 -59.030453 0.696114 -4.052738 0.000000 0.000000 0.000000 -7.614112 19.847267 18.144761 13.218211 -4.092206 -6.867144 0.000000 0.000000 0.000000 0.990990 9.835020 4.945460 53.268565 29.460560 3.891396 -0.066385 56.874577 -0.497097 -15.759529 -5.674878 20.942449 16.477367 -2.160732 0.483427 0.014199 -4.468327 12.008637 0.000000 0.000000 0.000000 15.566664 4.416609 -4.590688 20.514770 -6.152496 7.291282 0.000000 0.000000 0.000000 -3.840328 20.849880 -14.499084 53.967878 2.709950 -2.543657 0.000000 0.000000 0.000000 15.032975 7.442030 -4.576483 30.538964 -3.554281 7.165875 0.000000 0.000000 0.000000 -6.799219 -25.594787 23.320191 1.026215 13.680508 -4.062793 0.000000 0.000000 0.000000 
0.002971 0.724487 0.003227 -1.446206 1.167255 -25.092483 14.889272 -0.795721 -36.187513 -21.014212 5.750111 59.962108 5.496599 9.359165 -1.921202 0.000000 0.000000 0.000000 -14.274459 -0.256962 -38.032356 17.731450 -10.030647 68.155314 -4.548997 -5.349038 -6.701585 0.000000 0.000000 0.000000 -0.525868 -2.175293 31.949769 -7.957396 0.645834 -13.439609 9.040649 -0.840642 28.045730 3.486221 0.756173 -7.876448 0.000000 0.000000 0.000000 -4.802113 -13.211532 6.435580 -46.392599 -37.050288 -3.714477 -19.020629 -46.172147 13.153970 14.954072 1.034857 24.102242 -25.624067 4.524568 -0.042544 -10.117886 9.365312 13.667524 0.000000 0.000000 0.000000 -23.997686 4.834126 -3.975572 -28.810066 5.057042 0.470775 0.000000 0.000000 0.000000 -0.839535 -10.846297 -7.144502 -73.994606 -14.671714 -12.804481 0.000000 0.000000 0.000000 -20.279854 -0.741022 -3.221658 -49.048879 2.630634 -0.412292 0.000000 0.000000 0.000000 -7.350018 21.195767 19.250709 11.069049 -6.241095 -6.753187 0.000000 0.000000 0.000000 1.354812 10.429367 5.261266 52.578757 29.450841 3.725226 0.021263 56.827489 -0.492358 -15.845506 -5.318226 20.375249 16.240817 -2.721171 0.649212 -0.270208 -4.905851 13.469481 0.000000 0.000000 0.000000 15.352051 3.494226 -4.181621 20.145875 -6.259254 8.127067 0.000000 0.000000 0.000000 -1.916355 18.865602 -12.964233 57.887049 2.828659 -1.278003 0.000000 0.000000 0.000000 14.726328 5.925209 -3.953826 34.004414 -4.390077 8.580300 0.000000 0.000000 0.000000 -7.670496 -26.204255 23.882960 1.955317 13.867049 -3.724323 0.000000 0.000000 0.000000 
